# xmcd
#
# Track frame offsets:
#	150
#	14385
#	29499
#	40210
#	52189
#	65156
#	75557
#	86999
#	99395
#	111767
#	121020
#	131616
#	149557
#	158975
#	169659
#	183177
#	195142
#
# Disc length: 2765 seconds
#
# Revision: 1
# Processed by: cddbd v1.5.2PL0 Copyright (c) Steve Scherf et al.
# Submitted via: audiograbber 1.83.01
#
DISCID=e60acb11
DTITLE=Various Artist - The Real... Country Collection [CD1)
DYEAR=2016
DGENRE=Country
TTITLE0=The Carter Family - Can The Circle Be Unbroken
TTITLE1=Jimmie Rodgers - In The Jailhouse Now 
TTITLE2=Flatt and Scruggs - Foggy Mountain Breakdown
TTITLE3=Bob WIlls and his Texas Payboys - New San Antonio Rose 
TTITLE4=Bill Monroe and his Blue Grass Boys - Tennessee Blues
TTITLE5=Chet Atkins - Mister Sandman
TTITLE6=Johnny Horton - The Battle Of New Orleans
TTITLE7=Johnny Cash - I Walk The Line
TTITLE8=Eddy Arnold - I'll Hold You In My Heart (Till I Can Hold You In My Arms
TTITLE8=)
TTITLE9=Frankie Lane w. Jimmy Carroll and his Orchestra - Rawhide 
TTITLE10=Jim Reeves - He'll Have To Go 
TTITLE11=Marty Robbins - Big Iron
TTITLE12=Elvis Presley - Blue Moon Of Kentucky
TTITLE13=Floyd Cramer - San Antonio Rose
TTITLE14=Claude King - Wolverton Mountain
TTITLE15=Skeeter Davis - The End Of The World
TTITLE16=Bobby Bare - 500 Miles Away From Home
EXTD=
EXTT0=
EXTT1=
EXTT2=
EXTT3=
EXTT4=
EXTT5=
EXTT6=
EXTT7=
EXTT8=
EXTT9=
EXTT10=
EXTT11=
EXTT12=
EXTT13=
EXTT14=
EXTT15=
EXTT16=
PLAYORDER=
